<svg  xmlns="http://www.w3.org/2000/svg" xmlns:xlink="http://www.w3.org/1999/xlink" x="0px" y="0px"
	 viewBox="0 0 365 348" style="enable-background:new 0 0 365 348;" xml:space="preserve">
<path d="M365,72c0,2.1,0,4.3,0,6.4c-0.2,0.3-0.5,0.6-0.5,0.9c-8.6,43.2-17.4,86.4-25.8,129.6c-4.4,22.5-22.3,38.4-45,38.5
	c-57.1,0.2-114.3,0.1-171.4,0c-21.4-0.1-40.1-16.8-43.2-38.1c-2.7-18.6-5.6-37.3-8.3-55.9c-3-20.2-5.9-40.3-8.8-60.5
	c-2.7-18.3-5.3-36.6-8-54.9c-0.6-4.3-2-5.2-6.5-5.2c-10.2,0-20.4,0.1-30.6,0c-7.5-0.1-13.2-4.1-15.9-11C0.7,21.1,0.3,20.6,0,20
	c0-2.4,0-4.8,0-7.1c0.2-0.4,0.6-0.7,0.7-1.1C3.7,3.9,9.1,0.1,17.5,0C28.1,0,38.6,0,49.2,0c18.2,0.2,32.6,11.8,36.3,29.6
	c1.7,8.3,3.1,16.8,3.9,25.3c0.4,4.1,2.2,4.3,5.4,4.3c83.4-0.1,166.8-0.1,250.2,0c2.2,0,4.5,0,6.7,0.4C358.8,60.9,362.6,65.8,365,72z
	"/>
<path d="M276.6,262.7c23-0.1,42.6,19.5,42.7,42.7c0.1,23-19.2,42.4-42.4,42.5c-23.7,0.1-43-19.1-43-42.6
	C233.9,282,253.1,262.8,276.6,262.7z"/>
<path d="M172.1,305.2c0.1,22.8-18.8,42.2-41.2,42.3c-23,0.1-41.5-18.6-41.8-41.5c-0.4-22,17-42.5,41.3-43.1
	C153.1,262.3,172,281.7,172.1,305.2z"/>
</svg>