<svg xmlns="http://www.w3.org/2000/svg" xmlns:xlink="http://www.w3.org/1999/xlink" x="0px" y="0px"
	 viewBox="0 0 409.6 409.6" style="enable-background:new 0 0 409.6 409.6;" xml:space="preserve">
<g>
	<path d="M409.6,8c-4,12.9-8.1,25.8-12,38.7c-12.4,41.1-24.7,82.1-37.1,123.2c-1.8,5.9-3.1,6.9-9.4,6.9c-35.2,0-70.4,0-105.6-0.1
		c-2.8,0-4.7,0.8-6.5,2.9c-15.5,16.9-31.1,33.7-46.7,50.5c-1.4,1.5-2.7,3-4.1,4.4c-4.2,4-9.1,2.7-10.7-2.9
		c-3-10.9-5.9-21.8-8.8-32.7c-4.3-16.2-8.6-32.3-12.9-48.5c-0.3-1-0.7-2-1.1-3.2c-1.6,0-3.2,0-4.8,0c-37.5,0-74.9,0-112.4,0
		c-0.9,0-1.9,0-2.8,0c-4.4-0.1-7.1-1.7-7.5-5c-0.5-3.8,1.7-5.8,5.1-7c4.9-1.7,9.7-3.6,14.6-5.4c117-42.7,234-85.4,351.1-128.1
		c1.2-0.4,2.4-1.1,3.5-1.6c2.7,0,5.3,0,8,0C409.6,2.7,409.6,5.3,409.6,8z M392.4,22.6C332.3,70.2,273,117.1,213,164.7
		c46.3,0,91.3,0,136.6,0C363.8,117.7,377.9,70.7,392.4,22.6z M326.6,41.3c-0.1-0.2-0.2-0.5-0.3-0.7
		c-85.7,31.3-171.4,62.6-257.2,93.9c29,0.7,57.8,0.8,86.6,0.7c1.6,0,3.3-0.8,4.8-1.6c14.1-7.9,28.1-15.8,42.1-23.7
		c2.3-1.3,4.6-2.7,7-3.8c3.2-1.4,6.5-0.4,7.9,2.4c1.6,3.1,0.6,5.7-2,7.7c-1.1,0.8-2.2,1.4-3.4,2.1c-14,7.9-28,15.8-42.1,23.6
		c-2.7,1.5-3.4,2.8-2.5,5.9c4.6,16.6,9,33.3,13.5,50c0.5,1.8,1.1,3.5,2,6c2.3-11.5,4.4-22.1,6.8-32.6c0.5-2.3,2-4.8,3.8-6.2
		c41.4-32.9,82.9-65.7,124.3-98.6c7.7-6.1,15.5-12.3,23.2-18.5c-1.6,0.2-2.9,0.8-4.1,1.5c-32.3,17.8-64.5,35.6-96.8,53.3
		c-1.5,0.8-3,1.7-4.6,2.3c-2.9,1.2-5.3,0.1-6.9-2.4c-1.8-2.7-1.3-5.4,1.1-7.5c1.2-1,2.7-1.8,4-2.5c29.8-16.5,59.6-32.9,89.5-49.3
		C324.2,42.7,325.4,42,326.6,41.3z M194.1,209.2c0.3,0.2,0.7,0.3,1,0.5c9.9-10.7,19.9-21.5,30.4-32.9c-8.4,0-15.7,0-23,0.1
		c-0.8,0-2.1,0.9-2.3,1.5C198.1,188.7,196.1,198.9,194.1,209.2z"/>
	<path d="M0,401.6c4.9-5.3,9.8-10.7,14.8-16c2.9-3,6.2-3.1,8.8-0.7c2.6,2.4,2.7,5.8-0.1,8.8c-5.1,5.4-10.3,10.6-15.5,15.9
		c-2.7,0-5.3,0-8,0C0,407,0,404.3,0,401.6z"/>
	<path d="M84.8,287.4c0.7-0.7,1.8-1.6,2.8-2.6c15.5-15.5,30.9-30.9,46.4-46.4c1-1,2.1-2.1,3.3-2.9c2.6-1.7,5.2-1.3,7.3,0.8
		c2.1,2.1,2.5,4.7,0.8,7.3c-0.6,1-1.5,1.9-2.4,2.7c-18,18-35.8,36.2-54.2,53.9c-5.3,5.1-9,10.5-11.1,17.6
		c-5.2,17.4-14.9,32.3-27.5,45.3c-4.3,4.4-8.6,8.7-13,13c-3.1,3-6.3,3.1-8.9,0.7c-2.7-2.5-2.4-5.9,0.5-9.2
		c8.6-9.6,17.7-18.9,25.5-29.1c5.1-6.6,8.1-14.8,12.3-22.6c-7.5,0.9-14,2.4-20.5,2.5c-21,0.3-38.2-17.1-38.1-38.1
		c0.1-17.6,13.8-34,30.1-37c19.9-3.7,38.8,8,43.6,25.5C83.5,274.7,83.8,281.1,84.8,287.4z M72.2,283.1c-0.1,0-0.2,0-0.2,0
		c0-1.3,0.1-2.7,0-4c-0.9-12.9-10.5-23-23.2-24.5c-12-1.4-23.9,6.4-27.6,18.3c-3.8,12,1.8,25.2,13.6,30.8
		c10.7,5.1,21.3,2.4,31.6-1.8c2.6-1.1,4.3-2.5,4.5-5.7C71,291.8,71.7,287.5,72.2,283.1z"/>
	<path d="M283.8,260c8.5-13.9,16.7-27.1,24.8-40.4c3.2-5.1,6.4-6.7,9.8-4.7c3.4,2,3.6,5.8,0.4,10.8c-10.7,17.3-21.7,34.5-32.1,51.9
		c-1.7,2.8-1.4,6.9-1.7,10.4c-1.3,14.3-6.4,27.3-13.9,39.5c-1.7,2.7-3.3,5.5-5,8.2c-2.3,3.5-5.9,4.8-8.8,3.1
		c-3.2-1.9-3.7-5.3-1.4-9.4c4-7.1,8.3-14,11.7-21.3c2.6-5.6,3.8-11.8,6-19c-12.6,6.3-24.1,8-35.4,0.8c-6.5-4.1-10.7-10.1-12.7-17.7
		c-3.8-14.8,4.9-30.6,19.4-35.3C259.3,232.3,277.9,238.6,283.8,260z M255.4,282.6c5.8-0.2,11.5-3.1,16.7-7.3
		c0.7-0.6,1.3-1.8,1.2-2.6c-0.6-4.5-1.1-9-2.4-13.3c-2.7-8.7-11.7-13.5-20.6-11.5c-9,2.1-14.6,10.3-13.5,19.8
		C237.8,276.1,245.5,282.6,255.4,282.6z"/>
	<path d="M149.2,351.2c-4.6,0.1-7.6-3.9-6.5-7.5c0.3-1,0.8-2,1.4-2.8c7.3-10.4,14.6-20.9,22.2-31.2c1.3-1.7,4.2-3.1,6.3-3
		c4.1,0.2,6.4,5.2,3.9,8.8c-7.6,11.2-15.5,22.2-23.5,33.2C152.1,350.1,150.1,350.7,149.2,351.2z"/>
</g>
</svg>