<svg xmlns="http://www.w3.org/2000/svg" xmlns:xlink="http://www.w3.org/1999/xlink" x="0px" y="0px"
	 viewBox="0 0 361.4 206.1" style="enable-background:new 0 0 361.4 206.1;" xml:space="preserve">
<g>
	<path d="M0,28.9c0-2.4,0-4.7,0-7.1C1.7,15.4,4.2,9.3,10,5.5c3.6-2.4,7.9-3.7,11.9-5.5c2.1,0,4.2,0,6.4,0c8,1.4,13.8,6.3,19.4,11.9
		c43.2,43.4,86.6,86.7,129.9,130c1,1,1.6,2.3,2.4,3.5c0.5,0,1,0,1.5,0c0.8-1.2,1.5-2.5,2.4-3.4C227,98.7,270.2,55.6,313.2,12.4
		C319,6.6,324.9,1.5,333.2,0c1.9,0,3.8,0,5.6,0c4.3,1.9,9,3.3,12.9,5.8c5.7,3.6,8,9.8,9.7,16.1c0,2.4,0,4.7,0,7.1
		c-1.6,8-6.7,13.7-12.3,19.2c-48.8,48.6-97.5,97.4-146.1,146.1c-5.6,5.6-11.4,10.4-19.5,11.8c-1.9,0-3.8,0-5.6,0
		c-8-1.4-13.9-6.2-19.5-11.8C109.8,145.5,61.1,96.8,12.3,48.2C6.7,42.6,1.6,36.9,0,28.9z"/>
</g>
</svg>