<svg xmlns="http://www.w3.org/2000/svg" xmlns:xlink="http://www.w3.org/1999/xlink" x="0px" y="0px"
	 viewBox="0 0 316 316.6" style="enable-background:new 0 0 316 316.6;" xml:space="preserve">
<g>
	<path d="M0,158.2C0,121.8,0,85.3,0,48.9c0-18.7,13.3-42.8,37.5-47.7C49.9-1.3,61.7,0,72.9,5.7c68.3,34.6,136.6,69.2,204.9,103.8
		c9.3,4.7,18.1,10.1,25.2,17.8c17.6,19.2,17.4,44.7-1.3,62.8c-6.4,6.1-13.9,11.5-21.8,15.5c-68.5,34.9-137.3,69.5-206,104.1
		c-12.4,6.2-25.6,9-39.1,5C15,309.1,4.9,294.5,0.9,275.3c-1-4.8-0.8-9.9-0.8-14.9C0,226.3,0.1,192.2,0,158.2
		C0,158.2,0,158.2,0,158.2z M32.1,157.7C32.1,157.7,32.1,157.7,32.1,157.7c0.1,33.8,0.1,67.6,0.1,101.4c0,2.6-0.3,5.3,0,7.9
		c1.8,12.8,8.5,19.4,21.7,16.1c2.7-0.7,5.3-2.2,7.8-3.5c42-21.3,84-42.5,126-63.8c25.7-13,51.4-25.8,76.9-39.1
		c5.8-3,11.2-7.1,15.8-11.6c5-4.9,4.9-9.7-0.1-14.5c-4.7-4.5-10.1-8.6-15.9-11.5c-68-34.6-136.2-69-204.4-103.3
		c-3.8-1.9-8.2-2.9-12.4-3.8c-4-0.8-7.6,0.6-10.3,3.9c-3.5,4.3-5.4,9.2-5.3,14.8C32.1,86.3,32.1,122,32.1,157.7z"/>
</g>
</svg>