<svg xmlns="http://www.w3.org/2000/svg" xmlns:xlink="http://www.w3.org/1999/xlink" x="0px" y="0px"
	 viewBox="0 0 370.3 332.7" style="enable-background:new 0 0 370.3 332.7;" xml:space="preserve">
<g>
	<path d="M197.5,0c7.6,1.4,15,3.2,21.4,7.8c12.8,9.2,18.4,21.9,18.4,37.4c0,64.9,0,129.8,0,194.7c0,16.2,0.1,32.3,0,48.5
		c-0.1,21.6-13.1,38.2-33.4,43c-2.1,0.5-4.3,0.9-6.5,1.3c-1.8,0-3.6,0-5.3,0c-10.6-1.7-19.7-6.2-28.1-13.1
		c-25.1-20.5-50.5-40.6-76-60.7c-1.9-1.5-4.7-2.4-7.2-2.4c-10.2-0.3-20.5,0.2-30.7-0.2c-20.4-0.9-35.3-10.8-44.7-28.7
		C3,222.4,1.8,216.4,0,210.9c0-29.7,0-59.3,0-89c0.2-0.5,0.6-1.1,0.7-1.6c3.3-24,25.5-45,53.6-44c8.9,0.3,17.8,0.2,26.7-0.1
		c2.4-0.1,5.3-1,7.2-2.4c20-15.8,39.7-32,59.8-47.6C161.3,15.7,173,2.4,191.3,0C193.4,0,195.4,0,197.5,0z M208.9,166.2
		c0-40.5,0-81,0-121.4c0-6.4-2.1-11.6-8.1-14.6c-5.9-2.9-11.2-1.2-16,2.7c-25.8,20.7-51.5,41.4-77.4,61.9c-2.4,1.9-3.2,3.8-3.1,6.7
		c0.1,39.3,0.5,78.6-0.2,117.9c-0.2,11.7,2.1,20.3,12.7,25.8c0.1,0.1,0.2,0.2,0.3,0.3c22.7,18.2,45.3,36.3,68,54.5
		c3.5,2.8,7.3,4.5,11.9,3.8c7.7-1.3,12-7.1,12-16.1C208.9,247.2,208.9,206.7,208.9,166.2z M75.5,227.7c0-41.1,0-81.8,0-122.9
		c-8.4,0-16.5-0.2-24.6,0c-12,0.3-22.3,10.2-22.4,22.1c-0.3,26.2-0.2,52.4,0,78.7c0.1,10.8,9.2,21.1,19.7,21.9
		C57.2,228.3,66.2,227.7,75.5,227.7z"/>
	<path d="M365.6,210.5L365.6,210.5c-6.3,6.3-16.4,6.3-22.7,0l-76.3-76.3c-6.3-6.3-6.3-16.4,0-22.7l0,0c6.3-6.3,16.4-6.3,22.7,0
		l76.3,76.3C371.9,194.1,371.9,204.2,365.6,210.5z"/>
	<path d="M266.6,210.5L266.6,210.5c6.3,6.3,16.4,6.3,22.7,0l76.3-76.3c6.3-6.3,6.3-16.4,0-22.7l0,0c-6.3-6.3-16.4-6.3-22.7,0
		l-76.3,76.3C260.4,194.1,260.4,204.2,266.6,210.5z"/>
</g>
</svg>