<svg xmlns="http://www.w3.org/2000/svg"
 width="512.000000pt" height="512.000000pt" viewBox="0 0 512.000000 512.000000"
 preserveAspectRatio="xMidYMid meet">
<g transform="translate(0.000000,512.000000) scale(0.100000,-0.100000)"
stroke="none">
<path d="M192 5099 c-72 -28 -144 -102 -171 -175 -21 -55 -22 -65 -19 -728 l3
-671 29 -53 c102 -183 348 -224 507 -84 19 17 48 55 65 84 l29 53 3 477 3 477
477 3 477 3 53 29 c183 102 224 348 84 507 -17 19 -55 48 -84 65 l-53 29 -675
2 c-659 2 -676 2 -728 -18z"/>
<path d="M3517 5106 c-131 -47 -211 -163 -211 -306 0 -124 59 -226 166 -286
l53 -29 477 -3 477 -3 3 -477 3 -477 29 -53 c102 -183 348 -224 507 -84 19 17
48 55 65 84 l29 53 3 671 c3 663 2 673 -19 728 -28 75 -99 147 -174 175 -54
21 -71 21 -713 21 -526 -1 -665 -4 -695 -14z"/>
<path d="M239 1807 c-96 -27 -165 -83 -212 -171 -22 -41 -22 -42 -25 -712 -3
-663 -2 -673 19 -728 28 -76 99 -147 175 -175 55 -21 65 -22 728 -19 l671 3
53 29 c107 59 166 162 166 286 0 124 -59 227 -166 286 l-53 29 -477 3 -477 3
-3 477 -3 477 -29 53 c-17 29 -46 67 -65 84 -79 70 -208 101 -302 75z"/>
<path d="M4719 1807 c-96 -27 -165 -83 -212 -171 -22 -40 -22 -48 -25 -518
l-3 -477 -477 -3 -477 -3 -53 -29 c-183 -102 -224 -348 -84 -507 17 -19 55
-48 84 -65 l53 -29 671 -3 c663 -3 673 -2 728 19 76 28 147 99 175 175 21 55
22 65 19 728 l-3 671 -29 53 c-17 29 -46 67 -65 84 -79 70 -208 101 -302 75z"/>
</g>
</svg>