<svg xmlns="http://www.w3.org/2000/svg" xmlns:xlink="http://www.w3.org/1999/xlink" x="0px" y="0px"
	 viewBox="0 0 511.1 368.2" style="enable-background:new 0 0 511.1 368.2;" xml:space="preserve">
<path d="M0,145.2c0.7-8.9,1-17.9,2.1-26.8C4.1,101.8,5.6,85,9.2,68.7C16,37,43.8,12.9,76,8.4c38.4-5.4,77.1-7,115.8-7.7
	C233.9-0.1,276-0.4,318,0.8c36.3,1,72.7,3.9,108.9,6.9c28.2,2.3,51.2,14.4,66.3,39.4c7.7,12.7,10.7,26.8,12.6,41.1
	c6.3,45.6,5.8,91.5,4.4,137.4c-0.7,23.8-2.3,47.5-7.3,70.8c-7.5,34.7-33.8,58.5-68.9,63.4c-38.4,5.4-77.1,7-115.8,7.7
	c-41.4,0.8-82.8,1.1-124.2-0.1c-36.7-1-73.3-3.9-109.9-6.9c-30.8-2.6-55-16.6-69.4-45.1c-6.9-13.6-8.9-28.5-10.5-43.3
	c-1.6-14.7-2.3-29.5-3.4-44.2c-0.1-1.6-0.5-3.2-0.8-4.8C0,197.1,0,171.1,0,145.2z M261.8,38.7c-43.4,1.4-79.7,2.1-115.9,3.9
	c-21.5,1-43.1,3.2-64.5,5.8C63.5,50.6,51.3,62,47.7,79.7c-2.8,13.6-4.7,27.5-5.7,41.4c-2.7,36.4-3.1,72.8-1,109.2
	c1.1,18.5,3.2,37.1,6,55.4c2.8,18.3,13.8,30,32.3,33.2c12.4,2.2,25,4.1,37.5,4.7c40.7,2,81.4,4.4,122.1,4.7
	c42.2,0.3,84.5-1.2,126.7-2.8c21.4-0.8,42.7-3.2,64-5.8c18.2-2.2,30.5-13.2,33.6-31.2c3.4-19.6,5.9-39.5,6.6-59.3
	c1.1-30.9,1-61.9,0-92.8c-0.6-18-3.1-36.1-5.9-53.9c-2.9-18.5-14.1-30.2-32.8-33.4c-11.9-2.1-24-3.9-36.1-4.5
	C348.3,42.2,301.5,40.4,261.8,38.7z"/>
<path d="M344.5,184.1c-47,27.2-93.1,53.9-139.7,80.8c0-54.1,0-107.4,0-161.6C251.3,130.2,297.5,156.8,344.5,184.1z"/>
</svg>