<svg xmlns="http://www.w3.org/2000/svg" xmlns:xlink="http://www.w3.org/1999/xlink" x="0px" y="0px"
	 viewBox="0 0 270 270" style="enable-background:new 0 0 270 270;" xml:space="preserve">
<path d="M257.2,270c-2.2,0-4.5,0-6.7,0c-4-2.9-8.3-5.4-11.8-8.8c-15.2-14.8-30.1-30-45.1-45c-0.9-0.9-1.9-1.8-2.8-2.6
	c-0.5,0.2-0.6,0.2-0.7,0.3c-1.1,0.8-2.2,1.6-3.4,2.4c-25.1,17.3-52.8,24.3-83,20.4c-48.8-6.2-88-41.3-100-89.1
	C2,141,1.2,134.2,0,127.5c0-5.7,0-11.5,0-17.2c0.7-4.5,1.4-9.1,2.2-13.6c7.9-45.5,45.1-84,90.5-93.6c5.6-1.2,11.2-2,16.8-3
	c6,0,12,0,18,0c5.8,1,11.6,1.7,17.3,3c73.3,16,113.7,96.9,82.2,165c-3.7,8-8.6,15.4-13.3,23.9c0.6,0.5,1.9,1.2,2.8,2.1
	c14.8,14.7,29.6,29.4,44.2,44.3c3.6,3.6,6.2,8.2,9.3,12.3c0,2.2,0,4.5,0,6.7C267.8,263.6,263.6,267.9,257.2,270z M118.7,205.6
	c48.2,0.1,86.9-38.5,86.9-86.7c0-48.2-38.6-86.8-86.8-86.8c-48.1,0-86.6,38.4-86.7,86.5C32,166.9,70.5,205.5,118.7,205.6z"/>
</svg>