<?xml version="1.0" encoding="utf-8"?>
<!-- Generator: Adobe Illustrator 27.2.0, SVG Export Plug-In . SVG Version: 6.00 Build 0)  -->
<svg version="1.1" id="Layer_1" xmlns="http://www.w3.org/2000/svg" xmlns:xlink="http://www.w3.org/1999/xlink" x="0px" y="0px"
	 viewBox="0 0 176.8 539.6" style="enable-background:new 0 0 176.8 539.6;" xml:space="preserve">
<g>
	<path d="M110.4,472.3c9.6-4.5,19.1-9.1,28.7-13.6c4.7-2.2,11.3,0.3,13.1,5.2c2,5.2-0.2,10.7-5.2,13.1c-16.9,8-33.9,16.1-50.8,24.1
		c-16.9,8-33.7,16-50.6,24c-9.6,4.5-19.1,9.1-28.7,13.6c-3.6,1.7-8.1,0.6-10.8-2c-1.3-1.3-2.2-2.7-2.7-4.5c-0.5-1.9-0.7-4.5,0.3-6.4
		c4.6-8.7,8.2-17.8,10.8-27.3c2.6-10.5,3.8-21.2,3.9-31.9c-0.2-11.2-1.7-22.3-4.6-33.1c-3.1-10.4-7.4-20.4-12.9-29.8
		c-1.2-2-0.9-5.6-0.1-7.7c0.9-2.3,3-4.6,5.3-5.5c2.4-0.9,5.2-1.2,7.7-0.1c0.7,0.4,1.5,0.8,2.2,1.2c1.4,1.1,2.5,2.4,3.3,4.1
		c9.5,15.9,15.4,34,17.9,52.3c1.3,9.5,1.5,19.2,1,28.8c-0.2,3.9-0.7,7.8-1.2,11.6c23.7-29.3,46.2-59.7,65.3-92.2
		c1.2-2.1,2.4-4.1,3.6-6.2c0.7-1.2,1.3-2.3,2-3.5c0.3-0.5,0.5-0.9,0.8-1.4c0.1-0.1,0.1-0.2,0.2-0.3c0-0.1,0.1-0.2,0.1-0.3
		c2.4-4.4,4.8-8.9,7.1-13.4c4.6-9,8.9-18.1,12.9-27.4c3.8-8.9,7.3-17.9,10.4-27.1c1.5-4.5,3-9,4.3-13.5c0.6-2.1,1.3-4.3,1.9-6.5
		c0.3-1.1,0.6-2.2,0.9-3.2c0.2-0.6,0.3-1.2,0.5-1.8c0.1-0.2,0.2-0.7,0.4-1.1c-0.1,0.2-0.1,0.4-0.2,0.7c1.6-4.4,2.3-9.3,3.2-13.8
		c1-4.6,1.8-9.3,2.6-13.9c1.5-9.3,2.7-18.7,3.4-28.1c0.3-4.7,0.6-9.4,0.7-14.1c0.1-2.2,0.1-4.4,0.1-6.7c0-0.5,0-0.9,0-1.4
		c0,0,0,0,0-0.1c0-1.4,0-2.7-0.1-4.1c-0.3-9.4-1-18.7-2.3-28c-1.3-9.3-3-18.5-5.4-27.6c-0.2-1-0.5-1.9-0.8-2.9
		c0-0.1-0.3-1.2-0.4-1.4c0,0.1,0.1,0.2,0.1,0.6c0.4,1.7-0.2-0.5-0.2-0.7c-0.6-2.1-1.3-4.2-1.9-6.3c-1.3-4.2-2.8-8.3-4.4-12.4
		c-3.2-8.2-6.9-16.2-11.1-23.9c-1-1.9-2.1-3.9-3.2-5.8c-0.3-0.5-0.6-1.1-0.9-1.6c-0.1-0.2-0.3-0.4-0.4-0.5c-0.4-0.6-0.7-1.2-1.1-1.8
		c-2.3-3.7-4.8-7.4-7.3-10.9c-5.1-7.1-10.6-13.9-16.6-20.4c-1.4-1.5-2.8-3-4.3-4.5c-0.7-0.7-1.5-1.5-2.2-2.2c-0.3-0.3-0.7-0.6-1-1
		c0,0,0,0,0,0c-0.1-0.1-0.2-0.2-0.3-0.3c-3.2-3-6.4-5.9-9.8-8.6c-6.6-5.4-13.6-10.4-20.9-14.8c-1-0.6-2-1.2-2.9-1.7
		c-0.4-0.2-0.8-0.5-1.2-0.7c0,0-0.1,0-0.2-0.1c-0.1-0.1-1.1-0.6-1.2-0.7c-0.4-0.2-0.8-0.4-1.2-0.6c-1-0.5-2-1.1-3-1.6
		c-3.9-2-7.8-3.8-11.8-5.4c-4-1.7-8.1-3.1-12.3-4.5c-5-1.6-7.7-8.3-5.6-13c2.3-5.2,7.7-7.3,13-5.6c35.1,11.2,65.8,34,88.9,62.4
		c23.7,29,39.4,63.8,46.7,100.4c7.6,38.1,6.2,78-1.7,116c-8.2,39.5-23.1,77.1-42.5,112.4c-20.1,36.6-44.3,70.7-70.3,103.3
		c-1.1,1.4-2.2,2.7-3.3,4.1c2-0.9,4-1.9,6-2.8C76.7,488.3,93.6,480.3,110.4,472.3z M32.6,507.9c-0.1,0.5-0.3,1-0.4,1.5
		c0.5-0.2,0.9-0.4,1.4-0.6C33.2,508.5,32.8,508.2,32.6,507.9z"/>
</g>
</svg>
