<svg xmlns="http://www.w3.org/2000/svg" xmlns:xlink="http://www.w3.org/1999/xlink" x="0px" y="0px"
	 viewBox="0 0 799.4 888.1" style="enable-background:new 0 0 799.4 888.1;" xml:space="preserve">
<path d="M799.4,854.2c-1.4,2.7-2.8,5.3-4.1,8c-8.5,18.1-26.5,27.8-46.9,25.3c-18.3-2.2-33.6-16.9-36.8-35.9
	c-2-11.6-2.2-23.6-5.2-34.8c-7.1-27.1-23.8-48.3-44.4-66.5c-43.3-38.2-94.8-59.6-150.4-71.7c-99.3-21.6-197.1-16.7-292,21.6
	c-39.3,15.9-74.9,37.8-102.3,71.1c-16.9,20.6-27.5,43.7-28.4,71c-0.8,24.3-15.8,42-36.9,45.1c-22.8,3.4-40.5-7.5-50.2-31
	c-0.4-0.9-1.2-1.5-1.9-2.3c0-9.7,0-19.4,0-29.2c1.9-8.7,3.4-17.6,5.6-26.2c14.6-57.2,50-99.7,96.4-134
	c60.8-44.8,130.1-68.8,204-80.3c96.5-15,191.5-8.2,284,24.2c58,20.3,110.4,50.2,152.1,96.3c30,33.1,50.4,71.1,55.6,116.2
	c0.2,1.3,1,2.5,1.6,3.7C799.4,834.8,799.4,844.5,799.4,854.2z"/>
<path d="M399.9,533c-146.4,0.3-266.4-119.3-266.7-265.9C132.9,119.6,251.9,0.2,399.4,0c147-0.2,266.2,118.4,266.7,265.5
	C666.6,412.7,547.2,532.7,399.9,533z M577.1,266.5c0-98.4-79.7-178.3-177.8-178c-97.9,0.3-177,79.7-177.1,177.7
	c-0.1,98.5,79.4,178,177.8,177.9C498,443.9,577.1,364.5,577.1,266.5z"/>
</svg>