<svg xmlns="http://www.w3.org/2000/svg" xmlns:xlink="http://www.w3.org/1999/xlink" x="0px" y="0px"
	 viewBox="0 0 510.8 512" style="enable-background:new 0 0 510.8 512;" xml:space="preserve">
<g>
	<path d="M332.8,512c-51.3,0-102.7,0-154,0c-3.1-0.3-6.3-0.7-9.4-0.8c-20.5-0.5-40.9-1.3-61-6.2c-42.1-10.3-73.4-34.3-92.1-73.7
		C4.6,406.5,1.2,379.9,0.9,353C0.3,298-0.3,243,0.2,188.1c0.2-23.4,1.6-47,5-70.1c5.3-35.8,22.6-65.5,51.9-87.5
		C82.2,11.7,111.2,4.2,142,2c12.3-0.9,24.6-1.4,36.8-2c51,0,102,0,153,0c11.9,0.7,23.9,1.3,35.8,2c20.9,1.2,41.4,4.8,60.5,13.5
		c47.1,21.2,71.9,58.9,79.6,108.9c1.4,8.8,2,17.8,3,26.7c0,68.7,0,137.3,0,206c-0.3,1.8-0.6,3.6-0.8,5.4
		c-1.1,10.1-1.6,20.2-3.3,30.2c-5.4,32.1-19.2,60-43.8,81.9c-26.7,23.7-58.9,33.2-93.8,35.5C357,510.8,344.9,511.3,332.8,512z
		 M255.9,466.8c0-0.3,0-0.5,0-0.8c13.5,0,27,0.4,40.5-0.1c28.9-1,58.1-0.8,86.8-4.3c37.8-4.6,63.7-26,75.2-63.2
		c5.2-17.1,6.1-34.8,6.4-52.4c0.5-45.3,1.2-90.7,0.8-136c-0.2-27-0.9-54.1-4-80.8c-4.7-41.1-30.8-69-71.3-77.1
		c-17.7-3.5-36-4.6-54.1-4.9c-44.6-0.8-89.3-0.6-134-0.5c-25.6,0.1-51.3-0.2-76.8,4.2c-38.8,6.8-65.5,31.4-73.4,70.1
		c-3.4,16.7-4.6,34-4.9,51.1c-0.9,41.1-1.2,82.3-0.7,123.5c0.3,28.8,1.2,57.7,3.8,86.3c2.5,26.6,14.7,49,37.3,64.5
		c17.4,12,37.4,16.6,58.1,17.4C182.3,465.3,219.1,465.8,255.9,466.8z"/>
	<path d="M256,387.6c-72.4,0.3-131.5-58.7-131.8-131.4c-0.3-72.4,58.9-131.6,131.5-131.6c72.5,0,131,58.2,131.5,131.1
		C387.7,328,328.7,387.3,256,387.6z M170.5,255.9c-0.1,47.2,37.8,85.2,85,85.3c47.2,0.1,85.3-37.6,85.5-84.8
		c0.2-47.4-37.8-85.6-85.2-85.6C208.5,170.8,170.6,208.7,170.5,255.9z"/>
	<path d="M423,119.2c0.1,16.9-13.4,30.6-30.2,30.8c-17.1,0.2-31-13.6-31-30.5c0-16.9,13.4-30.5,30.3-30.7
		C409.3,88.6,423,102,423,119.2z"/>
</g>
</svg>
