<svg xmlns="http://www.w3.org/2000/svg" xmlns:xlink="http://www.w3.org/1999/xlink" x="0px" y="0px"
	 viewBox="0 0 898.7 920" style="enable-background:new 0 0 898.7 920;" xml:space="preserve">
<g>
	<path d="M0.5,920c21.3-25.1,42.4-50.3,63.9-75.2c93.5-108.7,187-217.4,280.5-326.1c1.9-2.3,3.8-4.6,6-7.3
		C234.1,341.5,117.4,171.7,0,0.8c3.4-0.3,5.6-0.6,7.8-0.6C91.9,0.2,176,0.3,260.1,0c6,0,9,2.2,12.1,6.8
		C346.1,114.5,420,222,493.9,329.5c1.8,2.7,3.8,5.2,6.2,8.7c15.3-17.8,30.1-34.9,44.9-52.1c79.5-92.4,159-184.7,238.2-277.2
		c5.6-6.6,11.3-9.1,19.8-8.9c21.7,0.6,43.5,0.2,67.3,0.2C757.8,130.9,646.7,260.1,535.4,389.5c1.9,2.9,3.5,5.4,5.2,7.9
		C658.3,568.8,776,740.2,893.8,911.6c1.8,2.7,3.3,5.6,4.9,8.4c-89.2,0-178.5,0-267.7,0c-1-1.8-2-3.7-3.2-5.4
		c-79.1-115.2-158.2-230.3-237.3-345.4c-1.3-1.9-2.9-3.6-4.7-5.7c-2.8,3.2-5.2,5.8-7.5,8.5c-67.5,78.5-135.1,157-202.6,235.5
		c-32.2,37.4-64.2,75-96.3,112.5C53.2,920,26.8,920,0.5,920z M107.9,59.8c2.7,4.1,4.2,6.6,5.9,9.1
		c183.4,262.3,366.8,524.7,550.1,787.1c3.7,5.3,7.6,7.1,14,7.1c34.1-0.3,68.2-0.1,102.4-0.2c2.9,0,5.7-0.3,9.8-0.5
		c-2.3-3.7-3.9-6.4-5.8-9C603,594.2,421.8,335.1,241,75.7c-8.2-11.8-16.3-16.9-30.9-16.3C176.6,60.7,143.1,59.8,107.9,59.8z"/>
</g>
</svg>